<svg id="Capa_1" enable-background="new 0 0 511.982 511.982" height="512" viewBox="0 0 511.982 511.982" width="512" xmlns="http://www.w3.org/2000/svg"><g><g><g><path d="m312.795 223.983h-18.158v-18.368c0-13.513-10.949-24.507-24.408-24.507h-28.475c-13.459 0-24.408 10.994-24.408 24.507v18.368h-18.158c-13.458 0-24.407 10.993-24.407 24.506v28.691c0 13.513 10.949 24.506 24.407 24.506h18.158v18.369c0 13.513 10.949 24.506 24.408 24.506h28.475c13.459 0 24.408-10.993 24.408-24.506v-18.369h18.158c13.458 0 24.407-10.993 24.407-24.506v-28.691c0-13.513-10.949-24.506-24.407-24.506zm4.407 53.197c0 2.484-1.978 4.506-4.407 4.506h-28.158c-5.523 0-10 4.478-10 10v28.369c0 2.484-1.978 4.506-4.408 4.506h-28.475c-2.431 0-4.408-2.022-4.408-4.506v-28.369c0-5.522-4.478-10-10-10h-28.158c-2.43 0-4.407-2.022-4.407-4.506v-28.691c0-2.484 1.978-4.506 4.407-4.506h28.158c5.522 0 10-4.478 10-10v-28.368c0-2.485 1.977-4.507 4.408-4.507h28.475c2.431 0 4.408 2.021 4.408 4.507v28.368c0 5.522 4.477 10 10 10h28.158c2.43 0 4.407 2.021 4.407 4.506z"/><path d="m458.309 240.796h-12.255v-54.403c0-84.992-58.594-159.216-142.49-180.499-5.351-1.352-10.793 1.881-12.152 7.234-1.357 5.354 1.881 10.794 7.234 12.152 75.016 19.029 127.408 85.281 127.408 161.112v54.403h-34.814v-54.403c0-72.68-60.673-131.81-135.249-131.81s-135.249 59.13-135.249 131.81v54.403h-34.815v-54.403c0-75.717 52.295-141.943 127.171-161.052 5.352-1.365 8.582-6.811 7.217-12.162-1.365-5.352-6.814-8.583-12.162-7.217-83.74 21.37-142.226 95.566-142.226 180.431v54.403h-12.254c-24.795 0-44.968 20.14-44.968 44.895v43.196c0 24.756 20.173 44.896 44.968 44.896h32.49v10.996c0 53.562 44.505 97.138 99.209 97.138h17.392c4.453 17.268 20.161 30.064 38.8 30.064h28.854c22.091 0 40.063-17.973 40.063-40.065 0-22.091-17.973-40.063-40.063-40.063h-28.854c-18.639 0-34.347 12.795-38.8 30.064h-17.392c-43.676 0-79.209-34.603-79.209-77.138v-10.996h24.579c5.522 0 10-4.478 10-10v-177.389c0-61.652 51.7-111.81 115.249-111.81s115.249 50.157 115.249 111.81v177.392c0 5.522 4.478 10 10 10h77.069c24.795 0 44.968-20.141 44.968-44.896v-43.196c0-24.757-20.173-44.897-44.968-44.897zm-216.745 211.058h28.854c11.063 0 20.063 9.001 20.063 20.064s-9 20.064-20.063 20.064h-28.854c-11.063 0-20.063-9.001-20.063-20.065 0-11.063 9-20.063 20.063-20.063zm-212.859-122.966v-43.196c0-13.728 11.2-24.895 24.968-24.895h12.102v92.988h-12.102c-13.768 0-24.968-11.169-24.968-24.897zm92.037 24.897h-34.968v-92.988h34.968zm270.498-92.989h34.815v92.988h-34.815zm92.037 68.092c0 13.727-11.2 24.896-24.968 24.896h-12.255v-92.988h12.255c13.768 0 24.968 11.168 24.968 24.895z"/><path d="m255.991 19.985c4.191 0 8.031-2.715 9.429-6.666 1.414-3.995.089-8.56-3.233-11.186-3.289-2.6-7.999-2.848-11.541-.604-3.451 2.187-5.25 6.365-4.472 10.375.901 4.639 5.095 8.081 9.817 8.081z"/></g></g></g></svg>